# Blender 3.3.1
# www.blender.org
mtllib cornelltransparent.mtl
o Cube
v -0.312963 0.732713 -1.246417
v -0.312963 1.358640 -1.246417
v -0.312963 0.732713 -1.872343
v -0.312963 1.358640 -1.872343
v 0.312963 0.732713 -1.246417
v 0.312963 1.358640 -1.246417
v 0.312963 0.732713 -1.872343
v 0.312963 1.358640 -1.872343
vn -0.0000 -1.0000 -0.0000
vn -0.0000 -0.0000 -1.0000
vn 1.0000 -0.0000 -0.0000
vn -0.0000 1.0000 -0.0000
vn -1.0000 -0.0000 -0.0000
vn -0.0000 -0.0000 1.0000
vt 0.625000 0.500000
vt 0.375000 0.500000
vt 0.625000 0.750000
vt 0.375000 0.750000
vt 0.875000 0.500000
vt 0.625000 0.250000
vt 0.125000 0.500000
vt 0.375000 0.250000
vt 0.625000 1.000000
vt 0.875000 0.750000
vt 0.625000 0.000000
vt 0.375000 0.000000
vt 0.375000 1.000000
vt 0.125000 0.750000
s 0
usemtl Material
f 5/5/1 1/1/1 3/3/1
f 3/3/2 4/4/2 8/13/2
f 7/11/3 8/12/3 6/8/3
f 2/2/4 6/7/4 8/14/4
f 1/1/5 2/2/5 4/4/5
f 5/6/6 6/8/6 2/2/6
f 3/3/2 8/13/2 7/9/2
f 5/5/1 3/3/1 7/10/1
f 7/11/3 6/8/3 5/6/3
f 2/2/4 8/14/4 4/4/4
f 1/1/5 4/4/5 3/3/5
f 5/6/6 2/2/6 1/1/6
o CornellBox-Mirror
v 1.010000 0.000000 -0.990000
v -1.000000 0.000000 -0.990000
v -1.000000 -0.000000 1.040000
v 0.990000 -0.000000 1.040000
v 1.020000 1.990000 -0.990000
v 1.020000 1.990000 1.040000
v -1.000000 1.990000 1.040000
v -1.000000 1.990000 -0.990000
v 0.990000 -0.000000 1.040000
v -1.000000 -0.000000 1.040000
v -1.000000 1.990000 1.040000
v 1.020000 1.990000 1.040000
v -1.000000 -0.000000 1.040000
v -1.000000 0.000000 -0.990000
v -1.000000 1.990000 -0.990000
v -1.000000 1.990000 1.040000
v 1.010000 0.000000 -0.990000
v 0.990000 -0.000000 1.040000
v 1.020000 1.990000 1.040000
v 1.020000 1.990000 -0.990000
v -0.530000 0.600000 -0.750000
v -0.700000 0.600000 -0.170000
v -0.130000 0.600000 0.000000
v 0.050000 0.600000 -0.570000
v 0.050000 0.000000 -0.570000
v 0.050000 0.600000 -0.570000
v -0.130000 0.600000 0.000000
v -0.130000 0.000000 0.000000
v -0.530000 0.000000 -0.750000
v -0.530000 0.600000 -0.750000
v 0.050000 0.600000 -0.570000
v 0.050000 0.000000 -0.570000
v -0.700000 0.000000 -0.170000
v -0.700000 0.600000 -0.170000
v -0.530000 0.600000 -0.750000
v -0.530000 0.000000 -0.750000
v -0.130000 0.000000 0.000000
v -0.130000 0.600000 0.000000
v -0.700000 0.600000 -0.170000
v -0.700000 0.000000 -0.170000
v 0.530000 1.200000 -0.090000
v -0.040000 1.200000 0.090000
v 0.140000 1.200000 0.670000
v 0.710000 1.200000 0.490000
v 0.530000 0.000000 -0.090000
v 0.530000 1.200000 -0.090000
v 0.710000 1.200000 0.490000
v 0.710000 -0.000000 0.490000
v 0.710000 -0.000000 0.490000
v 0.710000 1.200000 0.490000
v 0.140000 1.200000 0.670000
v 0.140000 -0.000000 0.670000
v 0.140000 -0.000000 0.670000
v 0.140000 1.200000 0.670000
v -0.040000 1.200000 0.090000
v -0.040000 -0.000000 0.090000
v -0.040000 -0.000000 0.090000
v -0.040000 1.200000 0.090000
v 0.530000 1.200000 -0.090000
v 0.530000 0.000000 -0.090000
v 0.240000 1.980000 -0.160000
v 0.240000 1.980000 0.220000
v -0.230000 1.980000 0.220000
v -0.230000 1.980000 -0.160000
vn -0.0000 1.0000 -0.0000
vn -0.0000 -1.0000 -0.0000
vn -0.0000 -0.0000 -1.0000
vn 1.0000 -0.0000 -0.0000
vn -0.9999 0.0100 -0.0049
vn 0.9536 -0.0000 0.3011
vn 0.2964 -0.0000 -0.9551
vn -0.2858 -0.0000 0.9583
vn -0.9596 -0.0000 -0.2813
vn 0.9551 -0.0000 -0.2964
vn 0.3011 -0.0000 0.9536
vn -0.9551 -0.0000 0.2964
vn -0.3011 -0.0000 -0.9536
s 0
usemtl floor
f 9//7 10//7 11//7 12//7
usemtl ceiling
f 13//8 14//8 15//8 16//8
usemtl backWall
f 17//9 18//9 19//9 20//9
usemtl rightWall
f 21//10 22//10 23//10 24//10
usemtl leftWall
f 25//11 26//11 27//11 28//11
usemtl shortBox
f 29//7 30//7 31//7 32//7
f 33//12 34//12 35//12 36//12
f 37//13 38//13 39//13 40//13
f 45//14 46//14 47//14 48//14
f 41//15 42//15 43//15 44//15
usemtl tallBox
f 49//7 50//7 51//7 52//7
f 53//16 54//16 55//16 56//16
f 57//17 58//17 59//17 60//17
f 61//18 62//18 63//18 64//18
f 65//19 66//19 67//19 68//19
usemtl light
f 69//8 70//8 71//8 72//8
